<?xml version="1.0" encoding="utf-8"?>
<!-- Generator: Adobe Illustrator 24.3.0, SVG Export Plug-In . SVG Version: 6.00 Build 0)  -->
<svg version="1.1" id="Layer_1" xmlns="http://www.w3.org/2000/svg" xmlns:xlink="http://www.w3.org/1999/xlink" x="0px" y="0px"
	 viewBox="0 0 862 136" style="enable-background:new 0 0 862 136;" xml:space="preserve">
<path d="M853.6,103.7V33.4h-1.9v-1.6h3v-1.7h-1.2v-1.3h-1.1v-3.3H845v-1.2l-2.7-2.7c0,0-11.4,0-11.7,0c-0.3,0-1.4,1.9-1.4,1.9v2.8
	H820v3.2h-1.1V31h-0.8v2.1h3.2v1.4h-1v65.1c-2.2,0-2.6,1.2-2.6,1.2v21.9h-3.2l1.7-1.8l-10.5-1.6V96.4h1.2v-1.9l1.3-1.1L795,92.4
	v-0.8l-3.7-1.3v-1.1l-6.3-1.1l-6.7,1.6h1v1h-2.8v0.9h1.4v1.9h-3.5l1.1-20.5l-6.1-2.6l-2.1,1.8v-2l-2.4,1.1v-1.4l-2.6,1.2v1.1h-2.3
	l-1-1l-5,1.8l2.1,23.4h-2.3V84.2h-9.5v-1.2h0.9v-0.5h-0.9v-5.7H744v5.7h-0.8v-0.7h-1.7v-1.1h-3.3v-0.9h-2v0.9h-1.1v1.1h-4.8v1.8h-1
	v0.6h-0.6v2.2h-1.6v-13h-2.3v-4.2h-0.9v-0.3h-2.6v-2.3h-0.1v2.3h-4.3v6.4h-7.7V88h-3.1v4.2h1.1v15.6h-2.9V94.4h-7v-2.1h-8v12.2
	l-7.3-7.3h-3.3l-3.5,3.4V88h-1.8v-3.5h-6.2v0.8h-2.3v-5.2h-2.7v5.2h-1.8V82h-3.4v-1.6c0.8-0.1,1.4-0.5,1.4-0.9
	c0-0.5-0.8-0.9-1.7-0.9c-1,0-1.7,0.4-1.7,0.9c0,0.5,0.7,0.9,1.4,0.9v1.3h-2.7V71.5h-0.5c0,0,0-12.5,0-12.7c0-0.2-1-1-1-1l-0.8,0.8
	v11h-0.7v12.2h-1.5v27.5H646v-1h0.9c0.8,0,1.3-0.6,1.3-1.3s-0.6-1.3-1.3-1.3H646v-2.4h0.9c0.8,0,1.3-0.6,1.3-1.3
	c0-0.8-0.6-1.3-1.3-1.3H646v-2.4h0.9c0.8,0,1.3-0.6,1.3-1.3c0-0.8-0.6-1.3-1.3-1.3H646v-2.6h0.9c0.8,0,1.3-0.6,1.3-1.3
	c0-0.8-0.6-1.3-1.3-1.3H646v-2.4h0.9c0.8,0,1.3-0.6,1.3-1.3c0-0.8-0.6-1.3-1.3-1.3H646v-2.4h0.9c0.8,0,1.3-0.6,1.3-1.3
	c0-0.8-0.6-1.3-1.3-1.3H646v-2.4h0.9c0.8,0,1.3-0.6,1.3-1.3s-0.6-1.3-1.3-1.3H646v-2.4h0.9c0.8,0,1.3-0.6,1.3-1.3
	c0-0.8-0.6-1.3-1.3-1.3H646v-2.4h0.9c0.8,0,1.3-0.6,1.3-1.3c0-0.8-0.6-1.3-1.3-1.3H646v-2.4h0.9c0.8,0,1.3-0.6,1.3-1.3
	c0-0.8-0.6-1.3-1.3-1.3H646v-2.4h0.9c0.8,0,1.3-0.6,1.3-1.3c0-0.8-0.6-1.3-1.3-1.3H646v-2.4h0.9c0.8,0,1.3-0.6,1.3-1.3
	s-0.6-1.3-1.3-1.3H646v-2.4h0.9c0.8,0,1.3-0.6,1.3-1.3c0-0.8-0.6-1.3-1.3-1.3H646v-2.4h0.9c0.8,0,1.3-0.6,1.3-1.3
	c0-0.8-0.6-1.3-1.3-1.3H646v-2.4h0.9c0.8,0,1.3-0.6,1.3-1.3c0-0.8-0.6-1.3-1.3-1.3H646V32h0.9c0.8,0,1.3-0.6,1.3-1.3
	c0-0.8-0.6-1.3-1.3-1.3H646v-2.4h0.9c0.8,0,1.3-0.6,1.3-1.3c0-0.8-0.6-1.3-1.3-1.3H646v-2.4h0.9c0.8,0,1.3-0.6,1.3-1.3
	c0-0.8-0.6-1.3-1.3-1.3H646v-1.5H636v-1.8c2.9-2.9,11.5-6.8,12.9-7.2c1.8-0.4,5-1,2.4-1.5c-1.1-0.2-4.8-0.5-9.1-0.8v-4h-16.7V0h-2.6
	v2.3h-12.8v4.3c-6.1,0.5-11.2,1.1-9.5,1.7c3,1,12.3,4.9,15.2,6.1v1.6h-8.4v1.5h-1c-0.8,0-1.3,0.6-1.3,1.3c0,0.8,0.6,1.3,1.3,1.3h1
	v2.4h-1c-0.8,0-1.3,0.6-1.3,1.3c0,0.8,0.6,1.3,1.3,1.3h1v2.4h-1c-0.8,0-1.3,0.6-1.3,1.3c0,0.8,0.6,1.3,1.3,1.3h1v2.4h-1
	c-0.8,0-1.3,0.6-1.3,1.3c0,0.8,0.6,1.3,1.3,1.3h1v2.8h-1c-0.8,0-1.3,0.6-1.3,1.3s0.6,1.3,1.3,1.3h1v2.4h-1c-0.8,0-1.3,0.6-1.3,1.3
	c0,0.8,0.6,1.3,1.3,1.3h1v2.4h-1c-0.8,0-1.3,0.6-1.3,1.3c0,0.8,0.6,1.3,1.3,1.3h1v2.4h-1c-0.8,0-1.3,0.6-1.3,1.3
	c0,0.8,0.6,1.3,1.3,1.3h1v2.4h-1c-0.8,0-1.3,0.6-1.3,1.3c0,0.8,0.6,1.3,1.3,1.3h1v2.4h-1c-0.8,0-1.3,0.6-1.3,1.3
	c0,0.8,0.6,1.3,1.3,1.3h1v2.4h-1c-0.8,0-1.3,0.6-1.3,1.3c0,0.8,0.6,1.3,1.3,1.3h1v2.4h-1c-0.8,0-1.3,0.6-1.3,1.3
	c0,0.8,0.6,1.3,1.3,1.3h1v2.4h-1c-0.8,0-1.3,0.6-1.3,1.3c0,0.8,0.6,1.3,1.3,1.3h1v2.2h-12.2v-1.9h-4.3v-2.7h-0.3v2.7h-2V84h-1.5
	v18.3h-9.6V52.2H568v-4.5h-0.4v4.5h-2.9v-0.7H562v-7.7h-9v1.7h-1.4V53h-2.1v-3.6h-5.7v42.1h-3.1v11.7h-3.8V53.3h-1.1v-1h-1.4v1H531
	v-1.6h-1.1v-1h-11.7V51h-0.3v0.4h-0.3V46h-0.8v-0.5h-0.6V46h-0.5v-5h-0.3v5h-0.8v-0.3h-0.5V46H514v5.7h-0.2v-0.4h-0.3v0.4h-0.8v2.3
	h-2.1v1.5h-0.6v-0.6h-0.3v0.6h-0.8v-0.6h-0.3v0.6H508v-0.6h-0.4v0.6h-0.3v6H507v-0.6h-0.3v0.6h-0.6v-0.6h-0.3v0.6h-0.6v-0.6h-0.3
	v0.6h-0.6v-0.6h-0.3v0.6h-0.3v3.8h-0.2v-0.5h-0.3v0.5h-0.5v-0.5h-0.3v0.5H502v-0.5h-0.3v0.5h-0.6v-0.5h-0.3v0.5h-0.6v-0.5H500v0.5
	h-0.2v24.8h-1.4V74.4h-0.6v-3H497v-3.2h-0.4v-3.4h-0.3v-4H496v4h-0.3v3.4h-2.1v-0.9h-0.4v-5.2h-0.4v-4.4h-0.3v4.4h-0.1v5.2H492v0.9
	h-0.9v-2.8h-0.4v-4h-0.4v4h-0.3v2.8h-2.7v-5.5h-0.3v-4.9h-0.2v4.9h-0.2v8.2h-0.5v2.3h-1v25h-6.7v-3.8h-13.1v-1.2h-0.9v-1.5h0.9v-1.3
	h-0.9v-1.5h0.9v-1.3h-0.9V86h0.9v-1.3h-0.9v-1.5h0.9v-1.3h-0.9v-1.5h0.9v-1.3h-0.9v-0.5h-5.8v-1.9h-0.1v1.9H458v-2.9h-0.1v2.9h-0.8
	v-2.9h-0.1v2.9h-0.2v-3.5h-0.1v3.5h-0.5v-2.9h-0.1v2.9h-0.7v-5.4h-0.1v5.4h-3.3v-0.9h-0.4v0.9H451v-1.5h-0.5v1.5h-2V77h-3.7h0.3
	v-2.2h-0.3v-1.3h0.3v-2.2h-0.3v-1.3h0.3v-2.2h-0.3v-1.6h0.3v-2.2h-0.3v-1.3h0.3v-2.2h-0.3V59h0.3v-2.2h-0.3v-0.9h-3.2v-0.7h-1.8v0.7
	h-1.2v-1.3h-2.8V50h-0.2v4.6h-2.7v1.3h-1.5v-7.9h-0.2v7.9h-3.3v-1h-3.6v1h-7v-4.2h-0.2v4.2h-0.7v0.9h-0.4V59h0.4v1.3h-0.4v2.2h0.4
	v1.3h-0.4v2.2h0.4v1.3h-0.4v2.2h0.4V71h-0.4v2.2h0.4v1.3h-0.4v2.2h0.4v1.3h-0.4v2.2h0.4v1.3h-0.4v2.2h0.4v1.3h-0.4v2.2h0.4v1.3h-0.4
	v2.2h0.4v1.3h-0.4v2.2h0.4v1.3h-0.4V98h0.4v1.3h-0.4v2.2h0.4v1.3h-0.4v1h-8V78.6l-0.7-0.7l0.4-0.5l-1.1-0.4v-9.7l1.4-0.3l-1.1-0.4
	v-0.7l-3.8-1.5h-0.3v-1.1l-0.7-0.7v-7.5c0,0,1.1-0.1,1.4,0.2c0.3,0.3,1.4,0.7,1.1,0.4c-0.2-0.3-0.1-0.9-0.2-1
	c-0.2-0.1-0.7-0.4-1.1-0.7c-0.5-0.3-1.2-0.7-1.2-0.7v-0.8h-0.4v10.2l-0.9,0.3v1.6l-4.4,0.6v0.8h-1.1l1.1,0.5v10h-0.1l-1.1,0.6h0.8
	l-1.1,1.1V104h-10.8V83.7h-3v-0.8h-2v0.8h-1.4v-3.4H373V78h-5.3V76h-0.8V78h-3.4v5.2h-2.7v-2.2h-1.6v2.2h-3.8v-2.2h-3.3v-5.3h-1.5
	v-0.9h-0.9v0.9h-0.5v-1.5h-0.9v1.5h-0.8v2.2h-2.5v-0.6c0.4-0.3,0.7-0.7,0.7-1.1c0-0.8-0.9-1.4-2-1.4c-1.1,0-2,0.7-2,1.4
	c0,0.7,0.6,1.1,1.3,1.3v0.3h-1.2l-2.3,1.1v-2.8h-0.5v3.1l-2.4,1.2v3.3l-2.1,3.1v12.9h-0.9v-1h-3v1h-4.1v6.1h-3.4v-5.3h-5.2v7.4h-3.4
	v-7.5h-3.8v-0.8h-8.2v0.8h-1.9v-4.8h-1.8v-1.2h-1.1v-0.5h1.7v-1.1h-6.4v1.1h0.5v0.5h-2.9V56.2H289v-0.7h0.4v-1h-3.6v1h0.6v0.7h-2.1
	v-1.9h-1.9v-3.2h-1.9v-0.9h-2.8v-1.1h-2.9v1.1H273v-1.7h-2.9v0.6h-0.9V48h-1.9v1.1h-1.1c0.5-0.5,0.8-1.1,0.8-1.7
	c0-1.3-1.1-2.4-2.4-2.4s-2.4,1.1-2.4,2.4s1.1,2.4,2.4,2.4c0.1,0,0.1,0,0.2,0V50h-2.4v-2.2h-1.1V50H259v0.4h-2.4v3.8H248l-2,0.9h2v2
	h-2.7v25.2h-2.5v4.2h-6.2v-3.7h-6v2.5h-2v-3.5l-1.1,7.8h-4.9v-1h1v-1.1h-1v-1.1h1v-1.1h-1v-1h1v-1.1h-1v-1h1v-1.1h-1v-1.1h1v-1.1h-1
	v-1.1h1v-1.1h-1V76c0,0-5.4-2-10.3,1.1v-2.4H210V57c0,0-1.5-0.2-3.7-0.5v-1.9h-2.4v1.6c-0.4,0-0.7-0.1-1.1-0.1v-3.4h0.7v-0.8H201
	v0.8h1.1v3.4c-3.3-0.2-6.7-0.1-8.4,0.8c0,0-12.7-1.2-12.7,1.9c0,3.2,0,16.9,0,16.9h-2v-3h-2.7v-2.1h-2.5l-1.1,2.4h-3.4V76h-1.7V33.9
	h1l-0.8-0.8h-2.2c0,0-1.9-2.3-4-0.6h-2.8v0.8h1.3v50h-2.1V42.7l-1.9-1.3h-33.2v-2.9H114v-5.9h-2.8V14.4h-0.7L110,31.9h-1.5v5.7h-4.2
	v1.7h-1.2v5.8h-2v23.5h-2.2v0.6h2.2V71H82.9v-1.8h3.2v-1.8h-3.2v-2.7h3.2v-1.8h-3.2v-3.1h3.2v-2.7h-3.9c-1.6-0.7-3.8-1.5-5.2-2V35.9
	c0,0,0.1-5.6-1.7-5.6c-1.8,0-4.8,0-4.8,0v3.4H67v-5.2h6.7v-4H68v-3.2h-2.1v-8h-0.6v7.8H62v3.2h-5.4v4h7v2.3h-9.3v3
	c0,0-2.3,0.8-2.3,5.5v8.3h-8.2v-8.6h-0.5v8.6h-4.2v-2.4h-0.4v2.4h-1.3v1.2h-3.7v-8.3h-0.2v8.3h-7.8v3.9h-1.8
	c0.3-0.2,0.5-0.5,0.6-0.8c0.5-1.1-0.3-2.3-1.6-2.9c-0.1,0-0.2-0.1-0.2-0.1v-5.1H22v4.9c-1.1-0.2-2,0.3-2.4,1.1
	c-0.4,1,0.2,2.2,1.3,2.8H5.5v1.3H4v2.8h2.1v2.9h-2v2.3h2v2.4h-2v2.3h2v2.4h-2v2.3h2v2.4h-2v2.3h2v2.4h-2v2.3h2v2.4h-2v2.4h2v2.4h-2
	v2.3h2v3.6H0v42.3h611.6h21.7h12.5h5h8.7h30H862v-32.1L853.6,103.7L853.6,103.7z M406.3,82.1l0.5,0.9c0,0,0.1,3.1,0,3.2
	c0,0.1-1.6-0.3-1.6-0.3v-3.2h0.9L406.3,82.1z M405,67.7l0.8-0.1V77l-0.8-0.2V67.7z M405.9,89.1c0.8,0,1.3,1.1,1.3,2.6
	c0,1.4-0.6,2.6-1.3,2.6c-0.7,0-1.3-1.1-1.3-2.6C404.6,90.2,405.1,89.1,405.9,89.1z M403.2,68l1-0.2v8.6l-1-0.3V68z M401.6,68.3
	l0.8-0.1v7.9l-0.8,0.1V68.3z M400.7,68.5L400.7,68.5l0.1,7.9h-0.1V68.5z M399.2,67.8l0.7,0.3v8.3l-0.7,0.1V67.8z M399.9,82.4h0.5
	v3.2h-2.7v-3.1h0.2l0.9-1L399.9,82.4z M397.6,67.1l0.8,0.3v9.1l-0.8,0.1V67.1z M399,88.8c1.3,0,2.4,1.1,2.4,2.4
	c0,1.3-1.1,2.4-2.4,2.4s-2.4-1.1-2.4-2.4C396.6,89.8,397.7,88.8,399,88.8z M250.6,57h-1v-2h1V57z M254,57h-1.8v-2h1.8V57z
	 M287.9,56.2h-0.8v-0.7h0.8V56.2z M744,83.6h-0.8v-0.7h0.7L744,83.6L744,83.6z"/>
</svg>
